<?xml version="1.0" encoding="utf-8"?>
<!-- Generator: Adobe Illustrator 28.0.0, SVG Export Plug-In . SVG Version: 6.00 Build 0)  -->
<svg version="1.1" id="Layer_1" xmlns="http://www.w3.org/2000/svg" xmlns:xlink="http://www.w3.org/1999/xlink" x="0px" y="0px"
	 viewBox="0 0 120 120" style="enable-background:new 0 0 120 120;" xml:space="preserve">
<style type="text/css">
	.st0{fill:#FF9F0D;}
</style>
<path class="st0" d="M113.8,81.5c-2.9,2-6.2,3.3-9.7,3.8c-3.5,0.5-7.1,0.2-10.4-0.9c-0.3-0.1-0.6-0.1-0.9-0.1
	c-0.3,0-0.6,0.2-0.9,0.4l-9,6.4l2.3,3.3l8.2-5.8c3.8,1.1,7.8,1.4,11.8,0.7c3.9-0.6,7.7-2.1,10.9-4.4c1.2-0.8,2.3-1.7,3.3-2.7
	l-2.7-2.9C115.8,80,114.8,80.8,113.8,81.5z"/>
<path class="st0" d="M93.7,51.5c-2.9,1.8-5.2,4.4-6.6,7.5c-1.5,3.1-2,6.5-1.7,9.9L60,85.2L34.7,69c0.4-3.4-0.2-6.8-1.7-9.9
	c-1.5-3.1-3.8-5.7-6.6-7.5c-3.8-2.6-8.4-3.8-13-3.3c-2.2,0.2-4.3,0.9-6.1,2c-1.9,1.1-3.5,2.6-4.7,4.5c-1.2,1.8-2,3.9-2.4,6
	C-0.2,63,0,65.2,0.6,67.3c1.2,4.5,4,8.3,7.9,10.9c2.8,2,6,3.2,9.4,3.4c3.4,0.2,6.8-0.5,9.8-2.2l19.7,14l-18.7,12
	c-0.9,0.6-1.6,1.3-2.2,2.2c-0.6,0.9-1,1.8-1.2,2.9c-0.2,1-0.2,2.1,0,3.1c0.2,1,0.6,2,1.2,2.9c0.6,0.9,1.3,1.6,2.2,2.2
	c0.9,0.6,1.9,1,2.9,1.2c1,0.2,2.1,0.2,3.1-0.1c1-0.2,2-0.7,2.8-1.3L60,102.4l22.6,16.1c0.9,0.6,1.8,1.1,2.9,1.3
	c1,0.2,2.1,0.3,3.1,0.1c1-0.2,2-0.6,2.9-1.2c0.9-0.6,1.6-1.3,2.2-2.2c0.6-0.9,1-1.9,1.2-2.9c0.2-1,0.2-2.1,0-3.2
	c-0.2-1-0.7-2-1.3-2.9c-0.6-0.9-1.4-1.6-2.3-2.2l-18.7-12l19.7-14c3,1.6,6.4,2.4,9.8,2.2c3.4-0.2,6.7-1.4,9.4-3.4
	c8.2-5.6,10.9-16.1,6-23.4C112.6,47.4,101.9,46,93.7,51.5z M35.1,115.2c-0.9,0.6-1.9,0.8-2.9,0.6c-1-0.2-1.9-0.8-2.5-1.6
	c-0.3-0.4-0.5-0.9-0.6-1.4c-0.1-0.5-0.1-1,0-1.5c0.1-0.5,0.3-1,0.6-1.4c0.3-0.4,0.7-0.8,1.1-1.1l20.1-12.9l5.7,4L35.1,115.2z
	 M91,111.3c0.2,0.8,0.1,1.6-0.2,2.3c-0.3,0.7-0.8,1.3-1.5,1.8c-0.6,0.4-1.4,0.6-2.2,0.6c-0.8,0-1.5-0.3-2.2-0.7L28.9,75.3
	c-0.3-0.2-0.8-0.4-1.2-0.4c-0.4,0-0.8,0.1-1.2,0.4c-2.4,1.6-5.2,2.3-8,2.3c-2.8-0.1-5.6-1-7.8-2.7c-3.1-2-5.3-5.1-6.3-8.6
	c-0.5-1.5-0.6-3.2-0.4-4.8c0.2-1.6,0.8-3.1,1.7-4.5c0.9-1.3,2.1-2.5,3.5-3.3c1.4-0.8,2.9-1.3,4.5-1.5c3.6-0.4,7.3,0.5,10.3,2.6
	c2.4,1.5,4.3,3.7,5.4,6.3c1.1,2.6,1.4,5.5,0.9,8.3c-0.1,0.4-0.1,0.8,0.1,1.2c0.2,0.4,0.4,0.7,0.8,1l57.9,37.2
	c0.4,0.3,0.8,0.6,1.1,1.1C90.7,110.3,90.9,110.8,91,111.3z M109.3,74.8c-2.3,1.7-5,2.6-7.8,2.7c-2.8,0.1-5.6-0.7-8-2.3
	c-0.3-0.2-0.7-0.4-1.2-0.4c-0.4,0-0.8,0.1-1.2,0.4L69,91l-5.3-3.4l24.9-16c0.4-0.2,0.6-0.6,0.8-0.9c0.2-0.4,0.2-0.8,0.1-1.2
	c-0.5-2.8-0.2-5.7,0.9-8.3c1.1-2.6,3-4.8,5.4-6.3c6.4-4.3,14.6-3.4,18.3,2.1C117.9,62.5,115.7,70.5,109.3,74.8z"/>
<path class="st0" d="M21.9,3.7l-2.2-3.3c-4.8,3.2-8.5,7.9-10.3,13.5c-1.8,5.5-1.8,11.5,0.1,17l3.8-1.3c-1.6-4.6-1.7-9.7-0.1-14.4
	C14.7,10.4,17.8,6.4,21.9,3.7L21.9,3.7z"/>
<path class="st0" d="M17.5,36.6c-1-1.1-1.8-2.3-2.5-3.5l-3.5,2c0.9,1.5,1.9,2.9,3,4.2L17.5,36.6z"/>
<path class="st0" d="M82,68.6l5.7-28.6c4.6-0.4,8.9-2.6,12-6.1c3.1-3.5,4.6-8.1,4.4-12.7c-0.2-4.7-2.2-9-5.6-12.3
	C95.1,5.8,90.7,4,86,4c-4,0-8,1.4-11.1,3.9c-1.6-2.4-3.9-4.4-6.5-5.8C65.8,0.7,63,0,60,0s-5.8,0.7-8.4,2.1c-2.6,1.4-4.8,3.4-6.5,5.8
	C42,5.4,38.1,4,34,4C29.4,4,25,5.8,21.6,9c-3.3,3.2-5.3,7.6-5.5,12.2c-0.2,4.6,1.4,9.2,4.4,12.7s7.3,5.7,11.9,6.1l5.7,28.6l3.9-0.8
	l-1.1-5.6h38.3l-1.1,5.6L82,68.6z M72.3,58.2L74,46.4l-4-0.6l-1.8,12.3H62V36.1h-4v22.1h-6.3L50,45.9l-4,0.6l1.7,11.8h-7.7L36,37.7
	c-0.1-0.5-0.3-0.9-0.7-1.2c-0.4-0.3-0.8-0.5-1.3-0.5c-3.7,0-7.3-1.5-9.9-4.1c-2.6-2.6-4.1-6.2-4.1-9.9c0-3.7,1.5-7.3,4.1-9.9
	C26.8,9.5,30.3,8,34,8c1.9,0,3.8,0.4,5.5,1.1c1.7,0.8,3.3,1.9,4.6,3.3c0.2,0.2,0.5,0.4,0.8,0.5c0.3,0.1,0.6,0.1,1,0.1
	c0.3,0,0.6-0.2,0.9-0.4c0.3-0.2,0.5-0.4,0.6-0.7c1.1-2.4,2.9-4.4,5.2-5.8C54.8,4.8,57.4,4,60,4s5.2,0.7,7.4,2.1s4,3.4,5.2,5.8
	c0.1,0.3,0.4,0.5,0.6,0.7c0.3,0.2,0.6,0.3,0.9,0.4c0.3,0,0.6,0,1-0.1c0.3-0.1,0.6-0.3,0.8-0.5c1.3-1.4,2.9-2.5,4.6-3.3
	C82.2,8.4,84.1,8,86,8c3.7,0,7.3,1.5,9.9,4.1c2.6,2.6,4.1,6.2,4.1,9.9c0,3.7-1.5,7.3-4.1,9.9c-2.6,2.6-6.2,4.1-9.9,4.1
	c-0.5,0-0.9,0.2-1.3,0.5c-0.4,0.3-0.6,0.7-0.7,1.2L80,58.2H72.3z"/>
</svg>
